<svg id="Layer_2" data-name="Layer 2" xmlns="http://www.w3.org/2000/svg" viewBox="0 0 539.06 625.5"><defs><style>.cls-1{fill:#1d1d1b;}</style></defs><path class="cls-1" d="M65.51,488.54q2-1.5,4.58,1.89c.32.43.76,1.05,1.31,1.86s1,1.41,1.26,1.79q3.81,5,13.15,2.06a42,42,0,0,0,13-6.85,42.33,42.33,0,0,0,5.74-6,7.41,7.41,0,0,0,1.21-3.69c.2-1.69,0-2.89-.51-3.59l-5.66-7.37c-1.34-1.74-.9-3.47,1.32-5.17a10.27,10.27,0,0,1,2.12-1.12,10.42,10.42,0,0,0,2.12-1.13,5.57,5.57,0,0,0,1.71-2.32l9.67,12.61a9,9,0,0,1,1.44,3.62q1.95,10.31-9.78,19.32-10.09,7.75-26.39,9.79a3.86,3.86,0,0,0-1.07.37l6.47,8.43c-.28.13-.72.38-1.32.73a13,13,0,0,0-1.4.9,14.36,14.36,0,0,0-1.74,1.73,13.34,13.34,0,0,1-1.67,1.67,2.1,2.1,0,0,1-2.08.25A4,4,0,0,1,77.09,517q-5.59-7.29-13.73-18.49a18.78,18.78,0,0,0-2-2.43c-1-1-1.65-1.79-2-2.31,0,0,0-.18.08-.4s.12-.35.08-.4a4.29,4.29,0,0,0,2.72-1,11.71,11.71,0,0,0,1.72-1.77A13.31,13.31,0,0,1,65.51,488.54Z" transform="translate(-25.79 -107.95)"/><path class="cls-1" d="M89.07,423.48a1.43,1.43,0,0,1,1-.16,10.35,10.35,0,0,1,.47,1.6,9.6,9.6,0,0,0,.48,1.59,21,21,0,0,0,1.67,2.83,22.51,22.51,0,0,1,1.66,2.82,2.48,2.48,0,0,1-.25,2.81,25.18,25.18,0,0,1-4.59,3.59q-4.84,3.17-5.13,3.39a29.76,29.76,0,0,0-5.92,6.2q-.54.75-3.45,6.46c-1.67,3.37-2.76,5.16-3.24,5.38-.76.35-2.32-.13-4.66-1.42A64,64,0,0,0,60.39,455c-2.81-1.15-5.18-1.28-7.14-.4-1.51.69-2.3,2.06-2.35,4.12a11.24,11.24,0,0,0,1.09,5c1.24,2.73,2.58,4.43,4,5.12s3.51.44,6.17-.76a28.94,28.94,0,0,0,3.23-1.85,27.4,27.4,0,0,1,3.23-1.85l12.2-5.52,10-3.12c1-.28,1.26-1.12.62-2.53a10.79,10.79,0,0,0-1-1.64,10.26,10.26,0,0,1-1-1.64q-1.62-3.58,2.1-5.26a6.68,6.68,0,0,1,2.49-.34,6.41,6.41,0,0,0,2.48-.34,5.92,5.92,0,0,0,1.19-.78,5.64,5.64,0,0,1,1.1-.74,67.66,67.66,0,0,0,2.66,7.61,23,23,0,0,0,1.69,2.87,23.23,23.23,0,0,1,1.68,2.86c1.23,2.71.65,4.47-1.72,5.28l-13.44,4.41-6.69,2.24L73.31,472l-5.87,3.44L55.79,482.1q-3.37,2-5.37-2.37c-.58-1.3-1.33-3.27-2.22-5.9s-1.64-4.6-2.22-5.9-1.66-3.35-3.15-6-2.52-4.62-3.14-6q-3.12-6.92,2-9.23,3.73-1.69,13.56.14t10.47,1.54q.66-.3,11.27-12.29T89.07,423.48Z" transform="translate(-25.79 -107.95)"/><path class="cls-1" d="M81.42,392.92a13,13,0,0,0,3.09-1.52L85,394a40.1,40.1,0,0,1,.43,4.95,39.93,39.93,0,0,0,.42,4.87c.3,1.76,1,4.52,2,8.29s1.75,6.54,2.05,8.3q.72,4.23-4.65,5.14-4.31.74-12.94,0t-12.94,0a53.88,53.88,0,0,0-11.55,4,53.81,53.81,0,0,1-11.54,4,4,4,0,0,1-4.8-3.71q-.9-6.92-2.68-20.55a28.78,28.78,0,0,0-1.95-6.64,1.44,1.44,0,0,1,.2-.94,2.45,2.45,0,0,1,1.51-.08,5.5,5.5,0,0,0,1.46.11,12,12,0,0,0,2.09-.62,13.31,13.31,0,0,1,2.1-.63q3.23-.56,4,4.2a61.85,61.85,0,0,1,.59,7.19,59.88,59.88,0,0,0,.57,7.1,5.89,5.89,0,0,0,1.07,2.53,2.41,2.41,0,0,0,2.38,1.23q3.91-.86,5.3-6a60.9,60.9,0,0,0,.89-9.11q.15-4.92,1.64-5.17,1.94-.33,4.4,4.59c2.09,4.11,3.2,6.22,3.34,6.31,1.47,1.56,4.26,2.57,8.37,3a33.73,33.73,0,0,0,9.37-.15,2.28,2.28,0,0,0,2.11-3,57.91,57.91,0,0,0-2.22-8,59.48,59.48,0,0,1-2.21-8q-.73-4.31,2.34-4.83a8,8,0,0,1,2.62.18A7.75,7.75,0,0,0,81.42,392.92Z" transform="translate(-25.79 -107.95)"/><path class="cls-1" d="M86.13,354.15l1.64.7a2.94,2.94,0,0,0-1,2.06,14.73,14.73,0,0,0,.15,2.7,15.29,15.29,0,0,1,.11,3q-.42,4.35-4.15,4a72.88,72.88,0,0,1-9.72-1.92,72.54,72.54,0,0,0-9.81-1.94q-3.47-.33-4.89,1.4A8.06,8.06,0,0,0,57,368.52a29.6,29.6,0,0,0-.18,6.59A4.38,4.38,0,0,0,61.13,379q3.21.31,9.57.25c4.25,0,7.41.05,9.49.25,3.43.33,5,2.06,4.69,5.2a8.92,8.92,0,0,1-.72,2.35,9.23,9.23,0,0,0-.72,2.45,5.55,5.55,0,0,0,.68,3.11l-1.63.11a51.17,51.17,0,0,1-9.56-2.36,44.17,44.17,0,0,0-9.49-2.17q-11.53-.48-15.19-.84a33.81,33.81,0,0,1-8.31-2.28,32.6,32.6,0,0,0-7.51-2.21,5.16,5.16,0,0,0-3.18.86,6.07,6.07,0,0,1-2,1c-.95-.09-1.43-1-1.44-2.84,0,.48.17-.79.46-3.82q.22-2.22,1-6.42c.54-2.79.87-4.9,1-6.33a60.11,60.11,0,0,0,.14-6.1c0-2.7,0-4.7.14-6q.36-3.82,3.56-3.52a129.34,129.34,0,0,1,13.64,1.77,77.72,77.72,0,0,0,20,2.2Q79.56,353.52,86.13,354.15Zm-39.76,6.92q-9.15-.88-10,7.82t8.31,9.6a5.8,5.8,0,0,0,3.22-.32c.6-.36,1-1.28,1.12-2.76a17.68,17.68,0,0,0,0-2.33,17.82,17.82,0,0,1,0-2.34c.07-.71.24-1.77.53-3.17s.46-2.5.54-3.27Q50.36,361.47,46.37,361.07Z" transform="translate(-25.79 -107.95)"/><path class="cls-1" d="M87.12,317.69q12.36,4.65,7.47,17.68-.61,1.67-2.24,5t-2.25,5a42,42,0,0,0-2,7.36,4.63,4.63,0,0,1-1-1.19c-.42-.64-.74-1-1-1.08a17.18,17.18,0,0,0-3.32-.73,16.87,16.87,0,0,1-3.25-.69,3,3,0,0,1-1.9-3,7.92,7.92,0,0,1,.82-3.7L83,332.82q2.39-4.83-2.06-6.49-4.09-1.54-11.73,2-6.92,3.42-13.8,6.74-8.21,3.3-13.82,1.2a11.83,11.83,0,0,1-2.71-1.68,8.13,8.13,0,0,1-3.4-6.24,20.07,20.07,0,0,1,1.59-7l4.5-9.18a14.84,14.84,0,0,0,.86-3.44c.28-1.64.5-2.79.66-3.42A7.37,7.37,0,0,0,45,306.47a8.41,8.41,0,0,0,2.37.36,8.33,8.33,0,0,1,2.36.36,3.69,3.69,0,0,1,2.39,3.37,8.1,8.1,0,0,1-.75,4.3L46.92,324c-1.11,2.26-1,3.63.35,4.14,1.5.56,4-.29,7.64-2.57q6.24-3.94,7.35-4.11,3.29-1.62,8.17-4a18.27,18.27,0,0,1,8.3-1.28A27.25,27.25,0,0,1,87.12,317.69Z" transform="translate(-25.79 -107.95)"/><path class="cls-1" d="M73.07,260.56l19.21,16.05q-.54-.48,4.18,2.73,4.37,3,12.42,7.46a40.4,40.4,0,0,0,4.07,1.79,21.53,21.53,0,0,1,3.9,1.89q3.25,2.2,1.69,4.49a34.76,34.76,0,0,1-2.63,3.17,37.4,37.4,0,0,0-3,3.69,38.53,38.53,0,0,0-2.23,4,37.69,37.69,0,0,1-2.22,4A13.78,13.78,0,0,1,96,316.12a26.41,26.41,0,0,1-13.7-5A50.68,50.68,0,0,1,72,301.59a57.25,57.25,0,0,1-7.63-11.86l-.51-.35-2,2.87c-1.58,2.32-3.2,2.91-4.88,1.77a16.72,16.72,0,0,1-1.53-2.27,24.68,24.68,0,0,0-1.62-2.46c-.23-.3-1.07-.43-2.52-.41l.08-.6a2,2,0,0,1,.38-1,10.27,10.27,0,0,1,1.89-1.85,10.35,10.35,0,0,0,1.85-1.76,14.06,14.06,0,0,0,1.11-2.27A13.21,13.21,0,0,1,57.85,279q2.35-3.48,4.95-1.72a22.79,22.79,0,0,1,2.88,3.58q1.42,2,2.92,4.14a60.6,60.6,0,0,0,14,13.57,48.71,48.71,0,0,0,7.34,4,16.65,16.65,0,0,0,8.23,1.27c3.56-.24,6-1.33,7.3-3.25a4.07,4.07,0,0,0,.32-4.31,8.39,8.39,0,0,0-3.17-3.34L72.32,275.15l-2.68-1.82a11.56,11.56,0,0,1-3.37-3,3.74,3.74,0,0,1,.4-4.26,11.37,11.37,0,0,1,1.62-1.76,11.49,11.49,0,0,0,1.57-1.68,4.86,4.86,0,0,0,.56-1.46,5,5,0,0,1,.41-1.23C71.19,259.35,71.94,259.58,73.07,260.56Z" transform="translate(-25.79 -107.95)"/><path class="cls-1" d="M148.72,264a1.36,1.36,0,0,1,.47.9,10.12,10.12,0,0,1-1.36,1,9.49,9.49,0,0,0-1.36,1,22.5,22.5,0,0,0-2.14,2.49,20.35,20.35,0,0,1-2.14,2.48,2.46,2.46,0,0,1-2.73.67,24.78,24.78,0,0,1-4.88-3.2c-3-2.38-4.66-3.63-4.86-3.77a29.27,29.27,0,0,0-7.77-3.61c-.59-.19-3-.59-7.23-1.2-3.73-.5-5.77-.95-6.14-1.34-.57-.61-.62-2.24-.15-4.87a61.92,61.92,0,0,0,1.27-7.54c.19-3-.45-5.32-1.91-6.88q-1.71-1.83-4.65-.91a11.15,11.15,0,0,0-4.41,2.65c-2.19,2-3.37,3.86-3.56,5.46s.72,3.46,2.71,5.59a29,29,0,0,0,2.79,2.47,27.87,27.87,0,0,1,2.79,2.46l9.13,9.79,6.16,8.42c.6.9,1.46.83,2.59-.23a9.86,9.86,0,0,0,1.22-1.5,11.39,11.39,0,0,1,1.22-1.51c1.92-1.79,3.8-1.69,5.66.3a6.76,6.76,0,0,1,1.12,2.25,6.63,6.63,0,0,0,1.11,2.24,5.94,5.94,0,0,0,1.13.87,6,6,0,0,1,1.06.81,65.35,65.35,0,0,0-6.36,5,23.26,23.26,0,0,0-2.17,2.52,23,23,0,0,1-2.17,2.51c-2.18,2-4,2.06-5.56.07l-8.48-11.31-4.28-5.63-7.17-7.67-5.13-4.46-10-8.9q-3-2.56.53-5.85c1-1,2.67-2.31,4.87-4s3.83-3,4.88-4,2.63-2.65,4.65-4.9,3.56-3.87,4.65-4.89q5.55-5.18,9.38-1.07,2.79,3,4.22,12.89t1.9,10.41q.5.53,15.26,6.73T148.72,264Z" transform="translate(-25.79 -107.95)"/><path class="cls-1" d="M174.66,244.45a13.13,13.13,0,0,0,2.61,2.26l-2.18,1.39a41.79,41.79,0,0,1-4.39,2.33,38.35,38.35,0,0,0-4.32,2.29q-2.25,1.44-6.84,5.12c-3.06,2.45-5.34,4.15-6.85,5.12q-3.6,2.3-6.54-2.28a56.64,56.64,0,0,1-5.07-11.91q-2.72-8.22-5.08-11.91a53.88,53.88,0,0,0-8.18-9.07,54.1,54.1,0,0,1-8.19-9.07,3.94,3.94,0,0,1,1.55-5.86l17.88-10.48a29.12,29.12,0,0,0,5.36-4.38,1.48,1.48,0,0,1,.94-.19,2.45,2.45,0,0,1,.66,1.37,5.94,5.94,0,0,0,.46,1.38,13.79,13.79,0,0,0,1.4,1.69,12.86,12.86,0,0,1,1.39,1.68c1.18,1.84.41,3.63-2.29,5.36a62.41,62.41,0,0,1-6.39,3.34,61.65,61.65,0,0,0-6.32,3.3,5.93,5.93,0,0,0-1.92,2,2.42,2.42,0,0,0-.2,2.67q2.31,3.27,7.57,2.55a60.76,60.76,0,0,0,8.74-2.73q4.59-1.77,5.4-.5,1.06,1.65-2.51,5.84c-3,3.52-4.48,5.37-4.52,5.53q-1.29,2.94.49,8.88a33.61,33.61,0,0,0,3.79,8.58,2.28,2.28,0,0,0,3.57.78,58.51,58.51,0,0,0,6.46-5.14,59.2,59.2,0,0,1,6.46-5.14q3.69-2.35,5.37.27a8.19,8.19,0,0,1,.85,2.48A7.77,7.77,0,0,0,174.66,244.45Z" transform="translate(-25.79 -107.95)"/><path class="cls-1" d="M202.32,221.1q5.34,12.09-7.41,17.71c-1.09.48-2.79,1.1-5.12,1.87s-4,1.39-5.13,1.87a41.71,41.71,0,0,0-6.65,3.72,4.2,4.2,0,0,1,.14-1.57,2.87,2.87,0,0,0,.09-1.44,16.49,16.49,0,0,0-1.81-2.88,17.48,17.48,0,0,1-1.77-2.81,3,3,0,0,1,.82-3.46,7.84,7.84,0,0,1,3.21-2l9.92-3.4q5.12-1.67,3.2-6-1.77-4-9.62-7-7.29-2.57-14.47-5.15-8.11-3.56-10.53-9a11.62,11.62,0,0,1-.69-3.12,8.1,8.1,0,0,1,2.08-6.78,19.71,19.71,0,0,1,6.13-3.78l9.71-3.21a14.77,14.77,0,0,0,3.07-1.79c1.36-1,2.33-1.6,2.9-1.92a7.13,7.13,0,0,0,.5,2.24,8.63,8.63,0,0,0,1.4,1.94,8.51,8.51,0,0,1,1.39,1.94,3.69,3.69,0,0,1-.74,4.07,8,8,0,0,1-3.59,2.47l-9.63,3.17q-3.57,1.19-2.71,3.15,1,2.21,7.18,3.66c4.79,1.14,7.49,1.93,8.08,2.39,2.3.8,5.16,1.82,8.56,3.05a18,18,0,0,1,6.71,5A27.09,27.09,0,0,1,202.32,221.1Z" transform="translate(-25.79 -107.95)"/><path class="cls-1" d="M428,219.39q-.86,1.88-4.41,7.83-3.39,5.55-11.34,10.6-8.92,5.7-14.14,3.36-4.31-2-6.66-8.68a28.92,28.92,0,0,1-1.89-11.23,38.1,38.1,0,0,1,3.61-13.45,40,40,0,0,1,4.69-7.48,34.76,34.76,0,0,1,6-6.42q.15-.12,4.7-3.26a29.87,29.87,0,0,0,4-3,5,5,0,0,0-.47-2.12,4.42,4.42,0,0,1-.43-2.2c.38-1.27,1.24-1.6,2.6-1a23.92,23.92,0,0,1,3.26,2,21.35,21.35,0,0,0,3.33,2,17.9,17.9,0,0,0,3.38,1,19.23,19.23,0,0,1,3.46,1,3.7,3.7,0,0,1,1.95,2c.12.32.37,1.28.76,2.9a44.89,44.89,0,0,1,.8,13.22A40.49,40.49,0,0,1,428,219.39Zm-11,.93a30.65,30.65,0,0,0,2.68-15.73,23.93,23.93,0,0,0-1.24-5.07q-1.31-3.42-2.76-4.08c-1.58-.71-3.73.6-6.48,3.94a34,34,0,0,0-4.74,7.26,29.87,29.87,0,0,0-2.05,18.26,13.61,13.61,0,0,0,1.45,3.4,6.22,6.22,0,0,0,2,2.58q2.43,1.1,6.52-3.63A29.38,29.38,0,0,0,417,220.32Z" transform="translate(-25.79 -107.95)"/><path class="cls-1" d="M467.73,221.5a3.1,3.1,0,0,1-2.45,1.49,4.47,4.47,0,0,1-2.93-.72,49.88,49.88,0,0,1-5.71-4.58,49.49,49.49,0,0,0-5.1-4.19,2.75,2.75,0,0,0-2.34-.24,3.37,3.37,0,0,0-2,1.37q-2.18,3.38.46,7.52a67.73,67.73,0,0,0,5.77,6.37c2.16,2.25,3,3.79,2.42,4.64s-2.05.91-4.6.33q-5.91-1.26-7.11-1.4-4.14-.22-5.92,2.55a56.84,56.84,0,0,0-4.17,8.68,56,56,0,0,1-4.21,8.76,5.37,5.37,0,0,1-2.67,1.67c-1.4.52-2.4.58-3,.2a15.05,15.05,0,0,1-2.36-2.11,15.08,15.08,0,0,0-2.35-2.11,14.76,14.76,0,0,0-3.09-1.14q3.61-4.46,7.17-9,4.32-5.38,6.79-9.21a98,98,0,0,0,6.82-13.87A97.45,97.45,0,0,1,444,202.67q2.76-4.28,6.29-2c1.45.93,3.58,2.45,6.41,4.55s4.95,3.63,6.4,4.56q4.43,2.85,8.65,5.05-.81.75-2.25,2.16A35,35,0,0,1,467.73,221.5Z" transform="translate(-25.79 -107.95)"/><path class="cls-1" d="M492.34,287.05a27.53,27.53,0,0,1-11.29,6.46q-7.8,2.37-11.92-2.08-1.28-1.38-3.54-4.33c-1.5-2-2.68-3.42-3.53-4.34a49,49,0,0,0-4.19-3.78,48.3,48.3,0,0,1-4.18-3.79c-1.95-2.1-1.67-4.3.81-6.6a74,74,0,0,1,10.26-7.39A74.38,74.38,0,0,0,475,253.81a71.91,71.91,0,0,0,8-9.55,72.64,72.64,0,0,1,7.93-9.5q3.21-3,6.12.17c1.06,1.13,2.57,3,4.54,5.47s3.5,4.36,4.59,5.54c.93,1,2.45,2.44,4.55,4.31s3.61,3.3,4.54,4.31a6,6,0,0,1,1.54,4.47,5.9,5.9,0,0,1-1.8,4.29q-2.55,2.37-9.14,2.82T498,267.81c-.31.28-.51,1.68-.6,4.21a40,40,0,0,1-1,7.6A14.68,14.68,0,0,1,492.34,287.05Zm-8.95-3.87a11.54,11.54,0,0,0,3.54-8.4,60.08,60.08,0,0,0-1-8.69q-.72-4.44.33-5.42t7.7.16q6.78,1,8.75-.81,3-2.79-1.3-7.44c-2.23-2.39-4-3.79-5.34-4.17-1.88-.54-3.93.23-6.15,2.29-.88.81-2.1,2.12-3.69,3.91s-2.83,3.12-3.74,4-2.54,2.29-4.61,4.09-3.6,3.16-4.6,4.09q-5,4.68-5.23,7.29t4.48,7.65c2,2.14,3.71,3.38,5.17,3.73Q480.32,286,483.39,283.18Z" transform="translate(-25.79 -107.95)"/><path class="cls-1" d="M522.94,317.12c-1.19.68-3.93,1.91-8.19,3.7q-6,2.46-15.42,1.83-10.56-.7-13.37-5.68-2.32-4.12-.23-10.94a29.18,29.18,0,0,1,5.13-10.17,38.26,38.26,0,0,1,10.88-8.69,40.38,40.38,0,0,1,8.21-3.25,34.41,34.41,0,0,1,8.61-1.63q.2,0,5.73.15a30.13,30.13,0,0,0,5,0,4.85,4.85,0,0,0,.88-2c.38-1.2.7-1.88,1-2,1-.8,1.94-.55,2.67.74a22.37,22.37,0,0,1,1.44,3.55,22.25,22.25,0,0,0,1.48,3.62,17.64,17.64,0,0,0,2.14,2.79A19.47,19.47,0,0,1,541,292a3.73,3.73,0,0,1,.41,2.74c-.09.32-.46,1.25-1.11,2.78a44.47,44.47,0,0,1-7.19,11.12A39.85,39.85,0,0,1,522.94,317.12Zm-9.4-5.76A30.63,30.63,0,0,0,525,300.27a23.66,23.66,0,0,0,2-4.81c.66-2.35.72-4,.2-4.93q-1.28-2.25-7.55-.66a33,33,0,0,0-8.12,3,29.85,29.85,0,0,0-12.48,13.5,13.41,13.41,0,0,0-.84,3.59,6.26,6.26,0,0,0,.1,3.28q1.32,2.33,7.41,1A29.67,29.67,0,0,0,513.54,311.36Z" transform="translate(-25.79 -107.95)"/><path class="cls-1" d="M526.78,360.51a31,31,0,0,1-23.17-2.67c-2.23-1.19-3.5-2.51-3.83-4a1.69,1.69,0,0,1,1-.54,14.45,14.45,0,0,1,3-.15c1.93.09,3.05.13,3.35.12a69.64,69.64,0,0,0,13.47-2,23.24,23.24,0,0,0,8.27-3.87q4.44-3.4,3.28-7.72-2.07-7.76-18.05-3.49-5.92,1.59-5.31,3.92a10.46,10.46,0,0,0,.77,1.83,9.19,9.19,0,0,1,.74,1.74,2.87,2.87,0,0,1-.48,2.34,3.27,3.27,0,0,1-1.9,1.53,5.61,5.61,0,0,1-2-.21L503.8,347a35,35,0,0,0-3.69.89,3.86,3.86,0,0,1-.47-1.07,16.21,16.21,0,0,1-.37-2.26,17.66,17.66,0,0,0-.37-2.25c-.22-.81-.62-2-1.2-3.61s-1-2.8-1.2-3.61a4.36,4.36,0,0,1,0-3.08,4.16,4.16,0,0,1,2.61-1.49,33.46,33.46,0,0,1,4.23-.76q3.52-.3,4.32-.42a154.85,154.85,0,0,0,16.25-3.51A141.72,141.72,0,0,0,538,321.29q10.39-4,11-4.15c2.76-.73,4.54.42,5.36,3.47.24.92.51,2.25.79,4s.49,3,.64,3.76q.84,3.84,2.91,11.6.46,1.73,1.65,5.1l.64,2.42a7,7,0,0,0-2.73-.2,7.58,7.58,0,0,0-1.94,1,7.56,7.56,0,0,1-2,1.05q-3.7,1-4.95-3.66-.15-.52-2.68-14.16a4,4,0,0,0-2.15-2.66,4.49,4.49,0,0,0-3.43-.56q-4.05,1.08-2.39,7.29a35.36,35.36,0,0,0,2.2,5.46,35.38,35.38,0,0,1,2.2,5.47q.85,3.18-3.23,7.24a21.45,21.45,0,0,1-7.05,4.75A54.63,54.63,0,0,1,526.78,360.51Z" transform="translate(-25.79 -107.95)"/><path class="cls-1" d="M509.52,398.25a13.16,13.16,0,0,0-3.25,1.15l-.14-2.59a41.45,41.45,0,0,1,.15-5,40.52,40.52,0,0,0,.15-4.88c-.09-1.79-.45-4.61-1.06-8.48s-1-6.7-1.07-8.49q-.23-4.28,5.22-4.56,4.37-.22,12.86,1.49t12.86,1.48a54.62,54.62,0,0,0,11.93-2.63,53.68,53.68,0,0,1,11.93-2.63,3.95,3.95,0,0,1,4.33,4.25q.09,7,.26,20.72a29.54,29.54,0,0,0,1.16,6.82,1.41,1.41,0,0,1-.31.91,2.47,2.47,0,0,1-1.51-.1,5.42,5.42,0,0,0-1.43-.28,12.69,12.69,0,0,0-2.15.38,15.46,15.46,0,0,1-2.16.38q-3.27.16-3.52-4.65a59.83,59.83,0,0,1,.26-7.21,60.38,60.38,0,0,0,.25-7.12,5.89,5.89,0,0,0-.76-2.64,2.4,2.4,0,0,0-2.22-1.49q-4,.38-6,5.31a62.13,62.13,0,0,0-2,8.95q-.72,4.86-2.24,4.94-1.95.1-3.83-5.07-2.39-6.5-2.57-6.66c-1.28-1.72-3.93-3-8-4a33.61,33.61,0,0,0-9.32-.95,2.29,2.29,0,0,0-2.45,2.72,58.36,58.36,0,0,0,1.28,8.16,59.22,59.22,0,0,1,1.27,8.15q.23,4.38-2.9,4.53a7.86,7.86,0,0,1-2.57-.49A7.86,7.86,0,0,0,509.52,398.25Z" transform="translate(-25.79 -107.95)"/><path class="cls-1" d="M494.76,442.78c-.23-.26-.26-.7-.08-1.33a9.44,9.44,0,0,1,.66-1.53,7.94,7.94,0,0,0,.59-1.27,21,21,0,0,0,.21-2.21,19,19,0,0,1,.24-2.3q1.2-4.22,8.22-2.21L535.16,444c2.22.63,3.58,1,4.05,1.05,2.08.28,3.28-.12,3.58-1.21q.72-2.49-4.4-6-4.89-3-9.69-5.9-5.21-3.15-4.75-4.78.38-1.29,6.54-1.12,10,.26,11.45.19c4.22-.28,6.58-1.29,7.07-3q.47-1.63-5.28-3.26l-33.06-6.88a10,10,0,0,1-4.51-1.74q-2.48-1.72-1.86-3.87c0,.06.18-.47.59-1.59s.76-2.2,1.06-3.23a27.37,27.37,0,0,0,.83-3.94l27.73,9.72,24.7,6a14.77,14.77,0,0,1,2.78,1,2.49,2.49,0,0,1,.82,3q-1.23,4.29-7,9c-3.86,3.15-6,5.6-6.55,7.38-.31,1.09.34,4,1.93,8.9s2.07,8.41,1.42,10.7a12.86,12.86,0,0,1-.65,1.95c-.83,1.19-2.64,1.38-5.45.59l-18.85-6.37-14-4Z" transform="translate(-25.79 -107.95)"/><path class="cls-1" d="M511.42,467.05q.3.17-8.35-3.92l-17.29-8.26a6.34,6.34,0,0,1,.75-1,6.73,6.73,0,0,0,.76-1c.31-.58.72-1.45,1.22-2.63s.9-2,1.19-2.56c1.5-2.77,3.39-3.44,5.65-2q16.42,10.74,25.13,15.46,5.81,3.15,9,4.49L542,471c.87.4,1.22.94,1.06,1.6-1.43,1.89-2.1,2.75-2,2.59a9,9,0,0,0-.74,2.31,10.36,10.36,0,0,1-.7,2.23q-1.85,3.39-5.78,1.26T522.64,474Q515.35,469.17,511.42,467.05Z" transform="translate(-25.79 -107.95)"/><path class="cls-1" d="M463,488.5,462,487a2.89,2.89,0,0,0,2-1.16,15,15,0,0,0,1.37-2.34,14.82,14.82,0,0,1,1.53-2.55q2.75-3.4,5.67-1a73.22,73.22,0,0,1,7.06,6.95,74.42,74.42,0,0,0,7.14,7c1.81,1.45,3.42,2,4.85,1.51a8.15,8.15,0,0,0,3.61-2.91,29.82,29.82,0,0,0,3.77-5.4,4.38,4.38,0,0,0-1.44-5.61q-2.5-2-7.86-5.46t-7.79-5.42q-4-3.24-1.07-6.93a9.71,9.71,0,0,1,1.89-1.57,8.92,8.92,0,0,0,1.95-1.64,5.44,5.44,0,0,0,1.14-3l1.42.81a50.78,50.78,0,0,1,6.7,7.22,44.2,44.2,0,0,0,6.74,7q9.38,6.74,12.22,9a33.36,33.36,0,0,1,5.7,6.47,32.63,32.63,0,0,0,5.06,6,5.14,5.14,0,0,0,3.13,1,6,6,0,0,1,2.23.3c.74.6.62,1.65-.36,3.16q.38-.62-2.49,2.94-1.4,1.74-4.38,4.8c-2,2-3.43,3.62-4.32,4.73a60.18,60.18,0,0,0-3.47,5q-2.18,3.4-3.41,5-2.41,3-4.92,1a132.68,132.68,0,0,1-10.43-9,77.14,77.14,0,0,0-15.47-12.8Q468.1,492.64,463,488.5Zm37,16.06q7.15,5.76,12.65-1.05T511,490.93a5.71,5.71,0,0,0-2.86-1.5c-.7,0-1.52.53-2.45,1.69a17.38,17.38,0,0,0-1.28,1.95,18.92,18.92,0,0,1-1.28,1.95c-.45.55-1.18,1.34-2.19,2.36s-1.76,1.83-2.25,2.43C497.46,501.3,497.9,502.88,500,504.56Z" transform="translate(-25.79 -107.95)"/><path class="cls-1" d="M295.38,541c-2.2,0-4.19,0-6.09-.07C237.59,539.66,189.18,523,153,494c-36.59-29.33-56.74-68.11-56.74-109.2S116.39,304.91,153,275.58c36.2-29,84.61-45.67,136.32-46.88,1.9,0,3.89-.07,6.08-.07A256,256,0,0,1,330.11,231c3.29.46,6.26.92,9.11,1.42,28.69,5.05,56.11,15.29,79.31,29.62a183,183,0,0,1,36.26,29.09c26,27.17,39.74,59.56,39.74,93.67,0,35.51-15.59,70.26-43.88,97.83a187.71,187.71,0,0,1-36.76,27.71,226,226,0,0,1-74.7,26.83c-3.1.54-6.15,1-9.08,1.42A256.06,256.06,0,0,1,295.38,541Zm0-303.32c-2.11,0-4,0-5.86.06-49.76,1.17-96.24,17.12-130.91,44.91-34.42,27.59-53.37,63.88-53.37,102.19s19,74.59,53.37,102.18c34.67,27.79,81.15,43.74,130.9,44.91,1.83,0,3.74.07,5.87.07a247.77,247.77,0,0,0,33.51-2.28c2.81-.39,5.76-.85,8.74-1.38a216.59,216.59,0,0,0,71.74-25.75,178.07,178.07,0,0,0,35-26.37c26.93-26.24,41.17-57.84,41.17-91.38,0-31.75-12.88-62-37.24-87.44a174.22,174.22,0,0,0-34.49-27.66c-22.24-13.74-48.57-23.56-76.14-28.41-2.74-.48-5.62-.93-8.79-1.38A247.25,247.25,0,0,0,295.38,237.63Z" transform="translate(-25.79 -107.95)"/><polygon class="cls-1" points="311.77 426.6 311.2 426.19 314.03 423.37 312.61 424.78 313.49 422.98 314.06 423.38 311.23 426.21 312.64 424.8 311.77 426.6"/><path class="cls-1" d="M257,149.82a17.53,17.53,0,0,1-14.19,1.63l-4,22.27,16.74,15.2,10.74-22.51Z" transform="translate(-25.79 -107.95)"/><path class="cls-1" d="M255.89,191l-18.5-16.8,4.4-24.35,1.36.43a16.4,16.4,0,0,0,13.18-1.52l1.1-.65,10.2,18.28ZM240.1,173.26l15,13.61,9.74-20.41-8.35-15A18.9,18.9,0,0,1,243.76,153Z" transform="translate(-25.79 -107.95)"/><path class="cls-1" d="M392.52,173.17c-15.63,17-25.63,53.65-25.63,53.65a258.72,258.72,0,0,0-142.47,0s-10-36.66-25.63-53.65c.4,0,.81.07,1.23.07a17.54,17.54,0,0,0,15.26-8.91l43.17,39.17,26.32-55.15a23.58,23.58,0,0,0,21.76,0l26.33,55.15L376,164.33a17.55,17.55,0,0,0,15.26,8.91C391.71,173.24,392.12,173.2,392.52,173.17Z" transform="translate(-25.79 -107.95)"/><path class="cls-1" d="M223.55,228.38l-.34-1.23c-.1-.36-10.1-36.56-25.34-53.13l-2.14-2.33,3.38.26c.3,0,.6,0,.91,0a16.33,16.33,0,0,0,14.17-8.27l.77-1.36L258,201.45l26.16-54.8,1.15.6a22.39,22.39,0,0,0,20.6,0l1.15-.6,26.16,54.8,43.07-39.09.77,1.36A16.35,16.35,0,0,0,391.28,172c.31,0,.62,0,.91,0l3.39-.26L393.44,174c-15.24,16.57-25.25,52.77-25.35,53.13l-.33,1.23-1.22-.36a257.47,257.47,0,0,0-141.77,0Zm72.1-12.81a255.8,255.8,0,0,1,70.38,9.7c1.82-6.33,10.53-34.83,23.74-50.84a18.86,18.86,0,0,1-14-8.16l-43.3,39.29L305.94,150a25.21,25.21,0,0,1-20.59,0l-26.5,55.53-43.3-39.29a18.86,18.86,0,0,1-14,8.16c13.2,16,21.91,44.51,23.74,50.84A255.73,255.73,0,0,1,295.65,215.57Z" transform="translate(-25.79 -107.95)"/><path class="cls-1" d="M199.12,167.86a12.59,12.59,0,1,1,12.59-12.59A12.61,12.61,0,0,1,199.12,167.86Zm0-18.18a5.59,5.59,0,1,0,5.59,5.59A5.59,5.59,0,0,0,199.12,149.68Z" transform="translate(-25.79 -107.95)"/><path class="cls-1" d="M294.86,608.19c-31.27,0-59.16-7-82.92-20.68-19.14-11-35.61-26.47-49-45.82-22.64-32.85-28.36-65.27-28.6-66.63l7.89-1.34-3.94.67,3.94-.68c0,.32,5.73,32.28,27.46,63.68,28.85,41.67,70.94,62.8,125.11,62.8h.53l0,8Z" transform="translate(-25.79 -107.95)"/><path class="cls-1" d="M295.38,626.23c-20.86,0-34.61-4.31-40.88-12.8a17.3,17.3,0,0,1-3-14.59l7.65,2.36L255.34,600l3.84,1.13a9.29,9.29,0,0,0,1.87,7.67c3.27,4.29,11.88,9.41,34.33,9.41Z" transform="translate(-25.79 -107.95)"/><path class="cls-1" d="M295.38,649.55c-8.11,0-12.6-1.28-14.57-4.16a5.39,5.39,0,0,1-.92-3.67v-20h8v19.12a27.43,27.43,0,0,0,7.49.72Z" transform="translate(-25.79 -107.95)"/><path class="cls-1" d="M295.34,669.46a147.93,147.93,0,0,1-20.82-1.83c-5.82-1-23.53-4-23.53-15.4a11.77,11.77,0,0,1,3.76-8.63c8.05-7.71,27.15-7.16,29.31-7.07l-.33,8c-6.82-.28-19.22.8-23.44,4.85a3.71,3.71,0,0,0-1.3,2.85c0,5.1,19.23,9.08,36.42,9.23Z" transform="translate(-25.79 -107.95)"/><path class="cls-1" d="M295.38,683.89C252,683.89,251.05,653.34,251,653l8-.13c0,.94,1,23,36.34,23Z" transform="translate(-25.79 -107.95)"/><path class="cls-1" d="M295.32,733.44C251.25,732.8,218,718.08,218,699.21c0-13.87,18-25.86,46.91-31.29l1.47,7.86c-24.15,4.54-40.38,14-40.38,23.43,0,12.18,27.9,25.63,69.43,26.23Z" transform="translate(-25.79 -107.95)"/><path class="cls-1" d="M295.38,703.46c-9,0-13-2.22-15.61-3.69l-5-2.75,3.56-3.76c4.85-5.1.76-12.13.58-12.43l6.84-4.15c2.15,3.51,4.57,10.94,1.39,17.72a25.63,25.63,0,0,0,8.23,1.06Z" transform="translate(-25.79 -107.95)"/><path class="cls-1" d="M227.86,595.32c-40-29.54-50.24-84.69-50.65-87l7.87-1.4c.1.54,10.14,54.37,47.53,82Z" transform="translate(-25.79 -107.95)"/><path class="cls-1" d="M295.76,608.19h-4.53V536.45h8v63.71c52.52-.88,93.42-22,121.65-62.77,21.74-31.4,27.41-63.36,27.47-63.68l7.88,1.35c-.23,1.36-6,33.78-28.59,66.63-13.35,19.35-29.82,34.77-49,45.82C354.92,601.23,327,608.19,295.76,608.19Z" transform="translate(-25.79 -107.95)"/><path class="cls-1" d="M295.24,626.23v-8c22.44,0,31.05-5.12,34.33-9.41a9.22,9.22,0,0,0,1.86-7.67l7.66-2.31a17.23,17.23,0,0,1-3,14.59C329.84,621.92,316.09,626.23,295.24,626.23Z" transform="translate(-25.79 -107.95)"/><path class="cls-1" d="M295.24,649.55v-8a27.27,27.27,0,0,0,7.48-.72V621.71h8v20a5.33,5.33,0,0,1-.92,3.67C307.84,648.27,303.34,649.55,295.24,649.55Z" transform="translate(-25.79 -107.95)"/><path class="cls-1" d="M295.27,669.46l-.07-8c17.2-.15,36.42-4.13,36.42-9.23a3.74,3.74,0,0,0-1.29-2.85c-4.22-4-16.62-5.13-23.45-4.85l-.32-8c2.15-.08,21.26-.64,29.3,7.07a11.77,11.77,0,0,1,3.76,8.63c0,11.44-17.71,14.42-23.53,15.4A147.83,147.83,0,0,1,295.27,669.46Z" transform="translate(-25.79 -107.95)"/><path class="cls-1" d="M295.23,683.89v-8c35.3,0,36.32-22,36.34-23l8,.13C339.57,653.34,338.67,683.89,295.23,683.89Z" transform="translate(-25.79 -107.95)"/><path class="cls-1" d="M295.29,733.44l-.12-8c41.54-.6,69.43-14.05,69.43-26.23,0-9.48-16.22-18.89-40.38-23.43l1.48-7.86c28.93,5.43,46.9,17.42,46.9,31.29C372.6,718.08,339.37,732.8,295.29,733.44Z" transform="translate(-25.79 -107.95)"/><path class="cls-1" d="M295.24,703.46v-8a25.55,25.55,0,0,0,8.22-1.06c-3.18-6.78-.75-14.21,1.4-17.72l6.82,4.17-3.41-2.08,3.42,2.06c-.17.3-4.26,7.33.58,12.43l3.57,3.76-5,2.75C308.21,701.24,304.23,703.46,295.24,703.46Z" transform="translate(-25.79 -107.95)"/><path class="cls-1" d="M362.75,595.32,358,588.88c37.4-27.62,47.44-81.45,47.53-82l7.88,1.4C413,510.63,402.75,565.78,362.75,595.32Z" transform="translate(-25.79 -107.95)"/><polygon class="cls-1" points="389.11 415.96 397.79 406.52 400.58 396.67 401.79 404.26 407.2 400.81 401.58 409.29 397.5 418.9 397.86 411.46 389.11 415.96"/><path class="cls-1" d="M338.25,713.06s15.51-9.45,4.14-10.4c8.17-2,16.46-6.22,4.92-7.73,7.66-4.72,14.26-.55,13.94,2.52-.79,3.29-2.44,5.49-8.21,9.76S338.25,713.06,338.25,713.06Z" transform="translate(-25.79 -107.95)"/><path class="cls-1" d="M247.84,144.86a13.09,13.09,0,1,1,13.09-13.09A13.1,13.1,0,0,1,247.84,144.86Zm0-18.18a5.09,5.09,0,1,0,5.09,5.09A5.1,5.1,0,0,0,247.84,126.68Z" transform="translate(-25.79 -107.95)"/><path class="cls-1" d="M334.05,149.82a17.53,17.53,0,0,0,14.19,1.63l4,22.27-16.74,15.2-10.74-22.51Z" transform="translate(-25.79 -107.95)"/><path class="cls-1" d="M335.12,191l-11.74-24.61,10.2-18.28,1.11.65a16.43,16.43,0,0,0,13.18,1.52l1.35-.43,4.4,24.35Zm-8.93-24.52,9.74,20.41,15-13.61L347.26,153a18.93,18.93,0,0,1-12.72-1.51Z" transform="translate(-25.79 -107.95)"/><path class="cls-1" d="M343.18,144.86a13.09,13.09,0,1,1,13.09-13.09A13.1,13.1,0,0,1,343.18,144.86Zm0-18.18a5.09,5.09,0,1,0,5.09,5.09A5.1,5.1,0,0,0,343.18,126.68Z" transform="translate(-25.79 -107.95)"/><path class="cls-1" d="M391.64,167.86a12.59,12.59,0,1,1,12.59-12.59A12.61,12.61,0,0,1,391.64,167.86Zm0-18.18a5.59,5.59,0,1,0,5.59,5.59A5.59,5.59,0,0,0,391.64,149.68Z" transform="translate(-25.79 -107.95)"/><path class="cls-1" d="M295.57,142.67a17.36,17.36,0,1,1,17.36-17.36A17.38,17.38,0,0,1,295.57,142.67Zm0-25.72a8.36,8.36,0,1,0,8.36,8.36A8.37,8.37,0,0,0,295.57,117Z" transform="translate(-25.79 -107.95)"/><path class="cls-1" d="M147,367.68H265.1s16.83-.83,24.31-6.7v51.7c-7.48-5.87-24.31-6.7-24.31-6.7H147.65A113.82,113.82,0,0,0,289.41,494.5v41.88C184.67,533.92,100.74,467,100.74,384.79S184.67,235.66,289.41,233.2v41.88A113.82,113.82,0,0,0,147,367.68Z" transform="translate(-25.79 -107.95)"/><path class="cls-1" d="M289.91,536.89h-.51c-50.84-1.2-98.4-17.54-133.92-46s-55.24-66.23-55.24-106.08,19.62-77.53,55.24-106.09,83.08-44.81,133.92-46l.51,0v43.05l-.63-.17a113,113,0,0,0-29.88-4c-55.36,0-103.35,41.06-111.87,95.61H265.1c.14,0,16.73-.89,24-6.6l.81-.63V413.7l-.81-.63c-7.27-5.7-23.86-6.59-24-6.59H148.25a113.3,113.3,0,0,0,141,87.53l.63-.17Zm-1-303.18c-50.43,1.28-97.57,17.53-132.8,45.77-35.39,28.36-54.87,65.76-54.87,105.31s19.48,76.94,54.87,105.3c35.23,28.24,82.37,44.49,132.8,45.77V495.15a114.31,114.31,0,0,1-141.75-89.08l-.12-.59H265.1c.69,0,16,.84,23.81,6.21V362c-7.82,5.37-23.12,6.18-23.79,6.21H146.37l.08-.58a114.36,114.36,0,0,1,142.46-93.18Z" transform="translate(-25.79 -107.95)"/><path class="cls-1" d="M369.28,346.42a92.61,92.61,0,0,0,80.91,132.63,182.69,182.69,0,0,1-35.88,27,125.84,125.84,0,0,1-65.12-48.56,124.5,124.5,0,0,1-17-35.83v78.94s1.27,26.31,8.91,31.74q-4.43.78-8.91,1.4a251.06,251.06,0,0,1-34.12,2.32V232.78a251.06,251.06,0,0,1,34.12,2.32c3,.42,6,.88,8.94,1.4-7.67,5.38-8.94,31.77-8.94,31.77v83a125.8,125.8,0,0,1,86.67-85.75,178.68,178.68,0,0,1,35.37,28.38c-.48,0-1,0-1.44,0A92.75,92.75,0,0,0,369.28,346.42Z" transform="translate(-25.79 -107.95)"/><path class="cls-1" d="M298.06,536.6h-.5V232.28h.5a251.12,251.12,0,0,1,34.19,2.33c3.23.45,6.16.91,9,1.4l1.19.21-1,.69c-7.38,5.18-8.71,31.12-8.73,31.39v79.62a125.15,125.15,0,0,1,17.65-35A126.6,126.6,0,0,1,418.72,265l.21-.06.19.12a178.9,178.9,0,0,1,35.46,28.46l.86.89-1.24-.05c-.47,0-.94,0-1.42,0a92.77,92.77,0,0,0-83,52.27h0a92.1,92.1,0,0,0-.83,77.89,92.76,92.76,0,0,0,81.31,54l1.18,0-.85.83a183.21,183.21,0,0,1-36,27.11l-.2.12-.21-.07a126.85,126.85,0,0,1-65.38-48.76,125.26,125.26,0,0,1-16.1-32.76v75.59c0,.24,1.35,26.11,8.7,31.33l1,.7-1.18.2c-3.05.54-6.06,1-8.93,1.41A252.72,252.72,0,0,1,298.06,536.6Zm.5-303.32V535.6a251.71,251.71,0,0,0,33.56-2.31c2.52-.35,5.15-.76,7.83-1.22-7-6.7-8.22-30.36-8.27-31.4V418.19l1,3.37a123.73,123.73,0,0,0,16.95,35.69,125.86,125.86,0,0,0,64.65,48.3,182.84,182.84,0,0,0,34.74-26A93.79,93.79,0,0,1,368,425a93.12,93.12,0,0,1,.84-78.75h0A93.83,93.83,0,0,1,453,293.37a179,179,0,0,0-34.25-27.32,125.31,125.31,0,0,0-86.12,85.35l-1,3.37v-86.5c.05-1.07,1.28-24.79,8.29-31.46-2.47-.42-5.05-.82-7.86-1.21A249.8,249.8,0,0,0,298.56,233.28Z" transform="translate(-25.79 -107.95)"/><path class="cls-1" d="M337.55,534.53l-.49-.32,1.38-1.46Zm.36-1.26,1.83-2,.11.08Zm.5-.54.89-1.79.44.31Z" transform="translate(-25.79 -107.95)"/><path class="cls-1" d="M395.8,504.61" transform="translate(-25.79 -107.95)"/></svg>