<?xml version="1.0" encoding="UTF-8"?>
<svg id="Layer_2" data-name="Layer 2" xmlns="http://www.w3.org/2000/svg" viewBox="0 0 673.82 805.88">
  <defs>
    <style>
      .cls-1 {
        stroke-width: 4px;
      }

      .cls-1, .cls-2, .cls-3, .cls-4, .cls-5 {
        fill: none;
      }

      .cls-1, .cls-2, .cls-6, .cls-4, .cls-7, .cls-5 {
        stroke: #1d1d1b;
        stroke-miterlimit: 10;
      }

      .cls-2 {
        stroke-width: 8px;
      }

      .cls-6 {
        stroke-width: 2.5px;
      }

      .cls-6, .cls-7, .cls-8 {
        fill: #1d1d1b;
      }

      .cls-4 {
        stroke-width: 9px;
      }

      .cls-5 {
        stroke-width: 7px;
      }
    </style>
  </defs>
  <g>
    <path class="cls-8" d="m107.1,470.54c1.31-1.01,2.84-.38,4.58,1.89.33.42.76,1.04,1.31,1.86.55.81.97,1.41,1.26,1.79,2.54,3.3,6.92,3.99,13.15,2.06,4.64-1.46,8.99-3.75,13.04-6.86,1.37-1.05,3.28-3.04,5.74-5.98.61-.77,1.01-2,1.21-3.69.2-1.69.03-2.89-.52-3.6l-5.65-7.36c-1.34-1.75-.9-3.47,1.32-5.17.42-.33,1.13-.7,2.12-1.12.99-.42,1.7-.8,2.12-1.12.71-.54,1.28-1.32,1.71-2.32l9.67,12.6c.62.8,1.1,2.01,1.43,3.63,1.31,6.87-1.95,13.31-9.77,19.31-6.74,5.17-15.54,8.44-26.4,9.8-.39.08-.75.2-1.07.37l6.47,8.43c-.27.14-.71.38-1.31.73-.6.35-1.07.65-1.4.91-.43.33-1.01.9-1.74,1.73-.73.82-1.29,1.38-1.67,1.67-.57.44-1.26.52-2.08.25s-1.46-.72-1.93-1.33c-3.73-4.86-8.31-11.02-13.74-18.49-.39-.6-1.07-1.41-2.04-2.43-.97-1.02-1.65-1.79-2.05-2.31-.04-.05,0-.18.08-.4.09-.22.12-.35.08-.4.97,0,1.88-.32,2.72-.96.42-.32.99-.91,1.71-1.76.72-.85,1.27-1.42,1.64-1.71Z"/>
    <path class="cls-8" d="m130.66,405.48c.43-.2.77-.25,1-.16.15.33.31.86.48,1.6.17.74.33,1.27.48,1.6.29.65.85,1.59,1.67,2.82.82,1.23,1.37,2.17,1.67,2.82.49,1.09.41,2.02-.25,2.81-.66.79-2.19,1.99-4.6,3.59-3.22,2.11-4.93,3.24-5.13,3.39-2,1.49-3.98,3.56-5.92,6.2-.37.49-1.51,2.64-3.45,6.46-1.68,3.37-2.76,5.17-3.25,5.38-.76.34-2.31-.13-4.66-1.42-3.46-2.03-5.7-3.23-6.73-3.62-2.8-1.15-5.18-1.28-7.14-.4-1.52.69-2.3,2.06-2.35,4.12-.06,1.6.31,3.28,1.09,5.02,1.23,2.73,2.58,4.43,4.03,5.12,1.46.69,3.51.43,6.17-.77.76-.34,1.84-.96,3.23-1.85,1.39-.89,2.47-1.51,3.23-1.85l12.2-5.51,9.95-3.12c1.05-.28,1.26-1.12.62-2.53-.17-.38-.52-.92-1.03-1.64-.52-.71-.86-1.26-1.03-1.64-1.08-2.39-.38-4.14,2.1-5.26.5-.22,1.32-.34,2.48-.34,1.16,0,1.99-.11,2.48-.34.33-.15.73-.41,1.19-.78.46-.37.83-.62,1.11-.74,1.04,3.45,1.92,5.99,2.66,7.62.29.65.86,1.61,1.69,2.86.83,1.26,1.39,2.21,1.69,2.86,1.23,2.71.65,4.47-1.72,5.28l-13.44,4.41-6.7,2.24-9.57,4.32-5.87,3.44-11.65,6.63c-2.26,1.35-4.05.55-5.37-2.37-.59-1.3-1.33-3.27-2.22-5.9-.9-2.63-1.64-4.6-2.22-5.9-.61-1.35-1.66-3.35-3.14-5.98-1.48-2.63-2.53-4.62-3.14-5.98-2.08-4.61-1.42-7.68,1.99-9.23,2.49-1.12,7.01-1.08,13.56.14,6.55,1.22,10.04,1.73,10.47,1.54.43-.2,4.19-4.29,11.27-12.29,7.08-8,11.11-12.22,12.08-12.66Z"/>
    <path class="cls-8" d="m123.01,374.92c.47-.08,1.5-.59,3.09-1.52l.44,2.55c.21,1.23.36,2.88.44,4.95s.22,3.69.42,4.86c.3,1.76.98,4.53,2.05,8.3,1.06,3.77,1.75,6.54,2.05,8.3.48,2.82-1.07,4.53-4.65,5.14-2.87.49-7.19.5-12.94.03-5.75-.47-10.07-.46-12.94.03-2.7.46-6.54,1.79-11.54,4-5,2.21-8.84,3.54-11.54,4-1.29.22-2.39-.03-3.3-.75-.91-.72-1.41-1.71-1.5-2.96-.6-4.61-1.5-11.46-2.69-20.55-.25-1.83-.9-4.04-1.95-6.64-.05-.29.02-.61.2-.94.27-.17.78-.19,1.51-.08.74.12,1.22.15,1.46.11.47-.08,1.16-.29,2.09-.63.93-.34,1.63-.55,2.09-.63,2.15-.37,3.5,1.03,4.04,4.2.27,1.58.47,3.98.59,7.19.12,3.21.32,5.58.58,7.1.16.94.52,1.78,1.06,2.54.71.97,1.5,1.37,2.38,1.22,2.61-.57,4.38-2.56,5.3-5.98.36-1.45.65-4.49.89-9.12.1-3.28.65-5,1.65-5.17,1.29-.22,2.75,1.31,4.4,4.59,2.09,4.11,3.2,6.22,3.33,6.31,1.47,1.56,4.26,2.56,8.37,3.01,3.44.38,6.56.33,9.37-.15,1.7-.29,2.4-1.28,2.11-2.99-.31-1.82-1.05-4.47-2.22-7.95-1.17-3.48-1.91-6.13-2.22-7.95-.49-2.87.29-4.49,2.34-4.84.59-.1,1.46-.04,2.61.19,1.16.23,2.03.29,2.61.19Z"/>
    <path class="cls-8" d="m127.72,336.15l1.64.7c-.58.48-.92,1.17-1.01,2.06-.05.53,0,1.43.14,2.7.15,1.27.19,2.26.12,2.97-.28,2.9-1.66,4.23-4.15,3.99-2.19-.21-5.43-.85-9.72-1.93-4.29-1.07-7.56-1.72-9.81-1.94-2.31-.22-3.94.24-4.89,1.4-.74.88-1.21,2.35-1.41,4.41-.32,3.36-.39,5.55-.19,6.58.43,2.36,1.86,3.66,4.29,3.89,2.13.21,5.32.29,9.57.25,4.25-.04,7.41.04,9.48.24,3.44.33,5,2.07,4.7,5.21-.05.53-.29,1.32-.72,2.35-.43,1.03-.67,1.85-.73,2.44-.1,1.01.13,2.05.69,3.12l-1.63.11c-2.08-.2-5.26-.99-9.56-2.36-4.07-1.29-7.23-2.01-9.49-2.17-7.69-.32-12.75-.6-15.19-.84-2.13-.21-4.91-.97-8.31-2.28-3.41-1.32-5.91-2.05-7.51-2.21-1.01-.1-2.07.19-3.18.86-1.11.67-1.79.99-2.02.97-.95-.09-1.43-1.04-1.43-2.84.01.48.17-.79.46-3.82.14-1.48.48-3.62,1.02-6.42.54-2.79.88-4.9,1.02-6.33.13-1.37.18-3.4.14-6.1-.04-2.7,0-4.7.13-6.01.25-2.55,1.44-3.73,3.57-3.52,6.93.67,11.48,1.26,13.64,1.77,5.95,1.53,12.6,2.27,19.96,2.2,9.21-.06,16.01.11,20.4.54Zm-39.77,6.92c-6.1-.59-9.43,2.02-9.99,7.82-.56,5.81,2.21,9,8.31,9.59,1.54.15,2.61.04,3.21-.32.6-.36.98-1.28,1.12-2.76.05-.53.05-1.31,0-2.33-.05-1.02-.05-1.8,0-2.33.07-.71.25-1.77.53-3.18.29-1.41.47-2.5.54-3.27.18-1.9-1.06-2.97-3.72-3.23Z"/>
    <path class="cls-8" d="m128.71,299.69c8.25,3.09,10.74,8.99,7.48,17.68-.42,1.12-1.17,2.77-2.25,4.97-1.08,2.2-1.83,3.86-2.25,4.97-.88,2.34-1.54,4.79-2,7.35-.26-.16-.6-.56-1.02-1.19-.42-.64-.75-1-.97-1.08-.72-.27-1.83-.51-3.32-.72-1.5-.21-2.58-.44-3.24-.69-1.22-.46-1.85-1.46-1.9-3-.05-1.22.23-2.46.82-3.7l4.51-9.46c1.59-3.22.91-5.38-2.05-6.49-2.73-1.03-6.65-.36-11.73,1.99-4.61,2.27-9.21,4.52-13.8,6.74-5.48,2.2-10.08,2.6-13.82,1.2-.67-.25-1.57-.81-2.71-1.68-2.16-1.7-3.3-3.78-3.39-6.23-.05-1.73.48-4.08,1.59-7.03l4.49-9.18c.31-.65.6-1.79.87-3.44.27-1.65.49-2.79.66-3.42.68.57,1.33.98,1.95,1.21.51.19,1.29.31,2.36.36,1.07.05,1.86.17,2.36.36,1.4.53,2.2,1.65,2.39,3.37.16,1.46-.09,2.89-.75,4.3l-4.46,9.1c-1.1,2.26-.98,3.64.35,4.14,1.5.56,4.05-.29,7.64-2.57,4.17-2.63,6.62-4,7.36-4.1,2.19-1.09,4.91-2.42,8.17-3.99,2.01-.96,4.78-1.38,8.3-1.27,3.25.14,6.05.65,8.39,1.53Z"/>
    <path class="cls-8" d="m114.66,242.55l19.2,16.05c-.36-.32,1.04.6,4.19,2.73,2.91,1.97,7.04,4.46,12.42,7.45.67.39,2.03.98,4.07,1.79,1.81.73,3.11,1.35,3.9,1.89,2.17,1.47,2.73,2.97,1.7,4.49-.43.64-1.31,1.7-2.64,3.17s-2.32,2.7-2.99,3.69c-.57.84-1.31,2.17-2.22,3.99-.92,1.83-1.66,3.16-2.22,3.99-2.94,4.33-7.1,6.44-12.49,6.3-4.54-.21-9.11-1.87-13.7-4.98-3.5-2.38-6.92-5.56-10.27-9.56-3.19-3.89-5.73-7.85-7.62-11.86l-.52-.35c.1-.15-.55.81-1.95,2.87-1.57,2.32-3.2,2.91-4.87,1.77-.15-.1-.66-.86-1.53-2.27-.87-1.42-1.41-2.23-1.62-2.46-.23-.3-1.07-.44-2.52-.42l.08-.59c.02-.35.15-.69.38-1.04.3-.44.93-1.06,1.9-1.84.96-.78,1.58-1.37,1.85-1.77.3-.44.67-1.2,1.11-2.27.44-1.07.82-1.85,1.16-2.34,1.57-2.31,3.22-2.88,4.95-1.71.4.27,1.36,1.46,2.88,3.57.95,1.36,1.92,2.75,2.92,4.14,4.31,5.66,8.97,10.18,13.96,13.57,2.03,1.38,4.47,2.71,7.34,4.01,2.31,1.06,5.05,1.49,8.23,1.27,3.56-.25,5.99-1.33,7.29-3.25.94-1.38,1.04-2.81.32-4.31-.64-1.3-1.7-2.41-3.17-3.34l-30.26-17.84c-.35-.23-1.24-.84-2.68-1.82-1.74-1.18-2.86-2.19-3.37-3.04-.77-1.31-.64-2.74.39-4.26.3-.44.84-1.03,1.62-1.76.78-.73,1.31-1.29,1.57-1.68.2-.3.39-.78.56-1.46.17-.67.31-1.09.41-1.23.37-.54,1.12-.32,2.25.66Z"/>
    <path class="cls-8" d="m190.3,245.94c.32.35.48.65.47.9-.26.24-.72.56-1.36.96-.65.4-1.1.72-1.36.96-.52.49-1.24,1.32-2.14,2.48-.9,1.17-1.62,2-2.14,2.48-.87.81-1.78,1.03-2.74.66-.96-.37-2.58-1.44-4.88-3.2-3.03-2.38-4.65-3.63-4.86-3.77-2.06-1.42-4.65-2.62-7.77-3.61-.58-.19-2.99-.59-7.22-1.2-3.73-.51-5.78-.96-6.14-1.35-.57-.61-.62-2.23-.15-4.87.81-3.93,1.23-6.44,1.27-7.54.19-3.02-.45-5.32-1.91-6.89-1.14-1.22-2.69-1.52-4.65-.91-1.54.46-3.01,1.34-4.41,2.65-2.19,2.04-3.37,3.86-3.56,5.46-.19,1.6.72,3.46,2.71,5.59.57.61,1.5,1.43,2.79,2.46,1.29,1.03,2.22,1.86,2.79,2.46l9.14,9.79,6.15,8.42c.6.9,1.47.83,2.6-.23.3-.28.71-.79,1.22-1.51.51-.72.92-1.22,1.22-1.51,1.91-1.79,3.8-1.69,5.65.3.37.4.74,1.15,1.12,2.24.37,1.1.75,1.85,1.12,2.24.25.27.62.56,1.12.88.5.32.85.59,1.06.81-2.93,2.09-5.05,3.74-6.36,4.96-.52.49-1.25,1.33-2.17,2.52-.93,1.19-1.65,2.03-2.17,2.51-2.18,2.03-4.03,2.05-5.55.07l-8.49-11.31-4.27-5.62-7.17-7.68-5.14-4.46-10.02-8.9c-2-1.7-1.82-3.65.52-5.85,1.04-.97,2.67-2.31,4.87-4,2.21-1.69,3.83-3.03,4.87-4,1.09-1.01,2.64-2.65,4.65-4.89,2.01-2.25,3.56-3.88,4.65-4.89,3.7-3.45,6.82-3.81,9.38-1.07,1.87,2,3.27,6.3,4.22,12.89.95,6.6,1.58,10.07,1.91,10.41.32.35,5.41,2.59,15.26,6.73,9.85,4.14,15.14,6.6,15.87,7.38Z"/>
    <path class="cls-8" d="m216.25,226.45c.26.4,1.12,1.15,2.61,2.25l-2.18,1.39c-1.05.67-2.52,1.45-4.39,2.33-1.87.88-3.31,1.64-4.31,2.28-1.5.96-3.79,2.67-6.84,5.12-3.06,2.45-5.34,4.16-6.84,5.12-2.41,1.54-4.59.78-6.54-2.28-1.57-2.46-3.26-6.43-5.07-11.91-1.81-5.48-3.5-9.45-5.07-11.91-1.47-2.31-4.2-5.33-8.19-9.07-3.98-3.74-6.71-6.76-8.19-9.07-.7-1.1-.9-2.21-.59-3.33.31-1.12,1.02-1.96,2.14-2.53,4.01-2.35,9.97-5.84,17.88-10.48,1.59-.94,3.37-2.4,5.36-4.38.25-.16.56-.22.94-.18.26.19.48.64.66,1.36.18.73.34,1.19.46,1.39.25.4.72.96,1.39,1.68.68.72,1.14,1.29,1.39,1.68,1.18,1.84.41,3.63-2.3,5.36-1.35.87-3.48,1.98-6.39,3.35-2.91,1.37-5.01,2.46-6.31,3.3-.8.51-1.44,1.17-1.92,1.97-.61,1.03-.68,1.92-.2,2.67,1.54,2.19,4.06,3.04,7.57,2.56,1.47-.24,4.39-1.15,8.74-2.74,3.06-1.18,4.86-1.35,5.4-.5.7,1.1-.13,3.05-2.52,5.84-2.97,3.52-4.48,5.37-4.52,5.53-.86,1.96-.7,4.92.49,8.88.99,3.31,2.25,6.17,3.79,8.57.93,1.45,2.12,1.71,3.57.78,1.55-.99,3.71-2.71,6.46-5.14,2.75-2.43,4.91-4.15,6.46-5.14,2.46-1.57,4.25-1.48,5.37.27.32.5.6,1.33.84,2.48.24,1.15.52,1.98.84,2.48Z"/>
    <path class="cls-8" d="m243.91,203.1c3.56,8.06,1.09,13.96-7.41,17.71-1.09.48-2.8,1.1-5.13,1.87-2.33.77-4.04,1.39-5.13,1.87-2.29,1.01-4.5,2.25-6.65,3.72-.07-.29-.02-.82.14-1.56.16-.75.19-1.23.09-1.45-.31-.7-.91-1.66-1.81-2.88-.9-1.22-1.49-2.15-1.77-2.8-.52-1.19-.25-2.34.81-3.46.84-.89,1.91-1.56,3.22-2l9.92-3.4c3.41-1.11,4.48-3.12,3.2-6.01-1.18-2.67-4.39-5-9.62-7-4.85-1.7-9.67-3.42-14.47-5.15-5.4-2.37-8.91-5.39-10.53-9.04-.29-.65-.52-1.69-.69-3.12-.3-2.74.4-5,2.08-6.78,1.21-1.25,3.25-2.51,6.14-3.78l9.71-3.21c.68-.23,1.7-.83,3.07-1.79,1.37-.96,2.33-1.6,2.91-1.92.07.89.23,1.63.5,2.24.22.5.68,1.14,1.39,1.94.71.8,1.18,1.45,1.39,1.94.61,1.37.36,2.73-.74,4.06-.93,1.13-2.13,1.96-3.59,2.47l-9.62,3.17c-2.38.79-3.29,1.84-2.71,3.15.65,1.47,3.04,2.69,7.18,3.66,4.79,1.14,7.49,1.93,8.08,2.39,2.31.8,5.16,1.82,8.57,3.05,2.09.77,4.33,2.45,6.71,5.04,2.17,2.42,3.77,4.78,4.78,7.06Z"/>
    <path class="cls-8" d="m469.6,201.38c-.56,1.25-2.03,3.86-4.41,7.83-2.25,3.7-6.03,7.23-11.34,10.6-5.95,3.8-10.67,4.92-14.14,3.35-2.88-1.3-5.1-4.19-6.66-8.68-1.41-3.83-2.04-7.58-1.89-11.23.23-4.14,1.43-8.62,3.61-13.45.95-2.12,2.52-4.61,4.69-7.48,2.17-2.87,4.17-5.01,5.97-6.41.1-.08,1.67-1.17,4.7-3.27,2.56-1.78,3.9-2.78,3.99-3,.1-.22-.06-.92-.46-2.12-.41-1.2-.55-1.93-.43-2.2.37-1.27,1.24-1.6,2.6-.98.76.34,1.84,1.01,3.26,2.01,1.41,1,2.52,1.68,3.34,2.04.7.32,1.83.65,3.38.98,1.54.34,2.7.68,3.46,1.02.92.42,1.57,1.07,1.96,1.96.12.32.37,1.28.75,2.89.91,4.07,1.17,8.48.8,13.22-.45,4.9-1.5,9.21-3.17,12.91Zm-10.99.93c2.3-5.1,3.19-10.34,2.68-15.73-.2-1.59-.61-3.28-1.24-5.06-.87-2.28-1.79-3.64-2.76-4.08-1.57-.71-3.73.6-6.47,3.94-2.16,2.62-3.74,5.04-4.74,7.26-2.59,5.75-3.28,11.84-2.06,18.26.17.79.65,1.93,1.46,3.4.8,1.47,1.48,2.33,2.02,2.58,1.63.73,3.8-.47,6.53-3.62,2.06-2.4,3.59-4.71,4.59-6.94Z"/>
    <path class="cls-8" d="m509.32,203.49c-.58.9-1.4,1.4-2.45,1.5-1.06.1-2.03-.14-2.93-.72-1.4-.9-3.3-2.43-5.7-4.58-2.4-2.15-4.1-3.55-5.1-4.19-.65-.42-1.43-.5-2.34-.24-.91.26-1.58.72-2,1.37-1.45,2.25-1.3,4.76.46,7.52.69,1.01,2.61,3.14,5.77,6.38,2.16,2.25,2.97,3.79,2.42,4.64-.52.8-2.05.91-4.6.33-3.95-.85-6.32-1.31-7.11-1.4-2.76-.15-4.73.7-5.92,2.55-1.16,1.8-2.55,4.69-4.17,8.68-1.62,3.99-3.02,6.9-4.21,8.75-.39.6-1.28,1.16-2.67,1.67-1.4.52-2.39.58-2.99.19-.6-.39-1.39-1.09-2.36-2.11-.97-1.02-1.76-1.72-2.36-2.11-.45-.29-1.48-.67-3.09-1.14,2.41-2.97,4.8-5.96,7.17-8.97,2.88-3.59,5.15-6.66,6.79-9.21,1.87-2.9,4.14-7.52,6.82-13.87,2.68-6.35,4.95-10.97,6.82-13.87,1.84-2.85,3.93-3.52,6.28-2,1.45.94,3.58,2.46,6.41,4.56,2.82,2.1,4.96,3.62,6.41,4.56,2.95,1.9,5.83,3.59,8.64,5.04-.54.5-1.29,1.23-2.25,2.16-.9,2.6-1.48,4.11-1.74,4.51Z"/>
    <path class="cls-8" d="m533.93,269.05c-3.36,3.12-7.12,5.27-11.29,6.46-5.2,1.58-9.17.88-11.92-2.09-.85-.92-2.03-2.36-3.53-4.33-1.51-1.97-2.68-3.42-3.53-4.33-.85-.92-2.25-2.18-4.19-3.79-1.94-1.61-3.33-2.87-4.19-3.79-1.94-2.09-1.67-4.29.81-6.6,2.05-1.9,5.47-4.36,10.25-7.39,4.79-3.02,8.2-5.48,10.25-7.39,2.05-1.9,4.72-5.09,8-9.56,3.28-4.47,5.93-7.63,7.93-9.49,2.14-1.98,4.18-1.93,6.12.16,1.05,1.13,2.56,2.96,4.53,5.47,1.97,2.52,3.5,4.36,4.59,5.54.93,1,2.45,2.44,4.55,4.31,2.1,1.87,3.61,3.3,4.54,4.31,1.09,1.18,1.6,2.67,1.54,4.48-.07,1.81-.67,3.24-1.8,4.29-1.7,1.58-4.75,2.52-9.14,2.82-4.39.3-7.02.85-7.89,1.66-.31.28-.5,1.69-.6,4.21-.16,3.15-.49,5.69-.98,7.61-.79,3.17-2.15,5.65-4.07,7.43Zm-8.95-3.87c2.22-2.06,3.4-4.86,3.53-8.4.02-1.64-.32-4.54-1-8.69-.48-2.96-.37-4.77.33-5.42.61-.57,3.18-.51,7.7.16s7.44.4,8.75-.81c2.01-1.86,1.57-4.34-1.3-7.44-2.23-2.4-4.01-3.79-5.34-4.18-1.88-.53-3.92.23-6.15,2.3-.87.81-2.1,2.11-3.68,3.9-1.58,1.79-2.83,3.12-3.75,3.97-1,.93-2.54,2.3-4.61,4.09-2.07,1.8-3.6,3.16-4.61,4.09-3.36,3.12-5.1,5.55-5.23,7.29-.13,1.74,1.37,4.29,4.48,7.65,1.98,2.14,3.71,3.38,5.17,3.73,1.75.4,3.65-.35,5.71-2.25Z"/>
    <path class="cls-8" d="m564.53,299.12c-1.2.67-3.93,1.91-8.19,3.7-4.01,1.64-9.14,2.25-15.42,1.83-7.05-.47-11.51-2.36-13.38-5.68-1.55-2.75-1.63-6.39-.23-10.94,1.14-3.92,2.85-7.31,5.13-10.17,2.64-3.2,6.26-6.09,10.88-8.7,2.02-1.14,4.76-2.22,8.21-3.25,3.45-1.02,6.32-1.57,8.61-1.63.13,0,2.04.04,5.72.15,3.12.08,4.79.07,4.99-.05.21-.12.5-.78.88-1.98.38-1.21.7-1.88.96-2.03,1.05-.8,1.94-.55,2.67.75.41.73.89,1.91,1.44,3.55.55,1.64,1.04,2.85,1.48,3.62.38.67,1.09,1.6,2.14,2.79,1.04,1.19,1.77,2.14,2.18,2.87.5.88.63,1.79.41,2.74-.09.32-.46,1.25-1.11,2.78-1.68,3.82-4.08,7.53-7.19,11.13-3.27,3.69-6.67,6.53-10.2,8.52Zm-9.41-5.76c4.87-2.75,8.7-6.44,11.48-11.08.78-1.4,1.45-3,2-4.82.65-2.35.72-3.99.19-4.93-.85-1.5-3.36-1.72-7.55-.66-3.29.83-6,1.84-8.12,3.04-5.49,3.1-9.65,7.6-12.48,13.49-.34.74-.62,1.94-.84,3.6-.22,1.66-.19,2.75.1,3.27.88,1.56,3.34,1.87,7.4.95,3.08-.71,5.68-1.67,7.81-2.87Z"/>
    <path class="cls-8" d="m568.37,342.51c-7.99,2.14-15.71,1.25-23.17-2.67-2.23-1.19-3.5-2.51-3.83-3.96.18-.23.5-.41.96-.53.46-.12,1.46-.18,3-.16,1.93.1,3.05.14,3.35.12,5.13-.33,9.62-1,13.46-2.03,3.33-.89,6.08-2.18,8.27-3.88,2.96-2.27,4.05-4.84,3.28-7.72-1.38-5.17-7.4-6.34-18.05-3.49-3.95,1.06-5.72,2.36-5.3,3.91.12.46.38,1.07.77,1.83.39.76.63,1.34.74,1.74.2.75.04,1.53-.48,2.35-.52.82-1.16,1.33-1.9,1.53-.29.08-.95,0-2-.21-1.23-.22-1.93-.35-2.08-.37-.16-.02-1.39.28-3.69.89-.21-.31-.36-.67-.47-1.07-.14-.52-.26-1.27-.37-2.26-.11-.99-.23-1.74-.37-2.26-.21-.81-.61-2.01-1.2-3.61-.58-1.6-.98-2.8-1.2-3.61-.38-1.44-.4-2.47-.04-3.08.36-.62,1.23-1.11,2.61-1.48,1.09-.29,2.5-.55,4.23-.76,2.35-.2,3.79-.34,4.32-.42,4.97-.77,10.38-1.95,16.25-3.52,5.23-1.4,9.94-2.91,14.13-4.52,6.93-2.65,10.59-4.04,11-4.14,2.76-.74,4.55.42,5.36,3.46.25.92.51,2.25.79,3.99.28,1.74.49,2.99.64,3.76.56,2.56,1.54,6.43,2.92,11.6.31,1.15.86,2.85,1.64,5.1l.65,2.41c-1.3-.27-2.21-.33-2.73-.19-.46.12-1.11.47-1.94,1.03-.84.56-1.51.91-2.03,1.05-2.47.66-4.12-.56-4.95-3.66-.09-.35-.99-5.07-2.68-14.16-.24-1.11-.95-2-2.14-2.66-1.19-.67-2.34-.85-3.43-.56-2.7.72-3.5,3.15-2.39,7.29.34,1.26,1.07,3.09,2.2,5.46,1.13,2.38,1.86,4.2,2.2,5.46.57,2.13-.51,4.54-3.24,7.24-2.25,2.2-4.59,3.78-7.05,4.75-1.89.75-3.9,1.41-6.03,1.98Z"/>
    <path class="cls-8" d="m551.11,380.25c-.48.02-1.56.41-3.25,1.15l-.13-2.58c-.06-1.25-.02-2.9.15-4.97s.21-3.69.15-4.88c-.09-1.78-.45-4.61-1.06-8.48-.62-3.87-.97-6.7-1.06-8.48-.15-2.85,1.59-4.37,5.22-4.56,2.91-.15,7.2.34,12.86,1.48,5.66,1.14,9.95,1.63,12.86,1.48,2.73-.14,6.71-1.02,11.93-2.63,5.22-1.61,9.2-2.49,11.93-2.63,1.31-.07,2.37.31,3.19,1.13.82.82,1.2,1.86,1.14,3.11.06,4.65.15,11.55.27,20.72.04,1.84.42,4.12,1.16,6.82.01.3-.09.6-.31.91-.29.13-.79.1-1.51-.1-.72-.2-1.2-.3-1.43-.28-.47.02-1.19.15-2.15.38-.96.23-1.68.35-2.15.38-2.18.11-3.36-1.44-3.52-4.64-.08-1.6,0-4.01.25-7.21.25-3.2.34-5.57.26-7.12-.05-.95-.3-1.83-.76-2.64-.59-1.04-1.33-1.54-2.22-1.49-2.66.26-4.65,2.03-5.97,5.31-.52,1.4-1.17,4.38-1.95,8.95-.49,3.24-1.23,4.89-2.24,4.94-1.31.07-2.58-1.62-3.83-5.08-1.59-4.33-2.45-6.55-2.57-6.66-1.28-1.72-3.93-3.05-7.96-3.97-3.37-.78-6.48-1.1-9.32-.95-1.72.09-2.53.99-2.45,2.72.09,1.84.52,4.56,1.27,8.16.75,3.6,1.18,6.31,1.27,8.16.15,2.91-.81,4.42-2.89,4.53-.59.03-1.45-.13-2.57-.49-1.12-.36-1.98-.52-2.57-.49Z"/>
    <path class="cls-8" d="m536.35,424.77c-.24-.25-.27-.7-.09-1.32.1-.34.32-.85.67-1.53.35-.68.54-1.1.59-1.27s.12-.91.21-2.21c.09-1.3.17-2.07.24-2.3.8-2.81,3.54-3.54,8.22-2.21l30.55,12.1c2.23.63,3.58.98,4.05,1.06,2.08.28,3.28-.12,3.58-1.21.47-1.66-1-3.66-4.4-5.98-3.26-1.98-6.49-3.94-9.69-5.9-3.47-2.1-5.05-3.69-4.74-4.78.24-.86,2.42-1.23,6.53-1.12,6.69.17,10.51.23,11.45.19,4.22-.29,6.58-1.29,7.07-3.01.31-1.09-1.45-2.17-5.28-3.26l-33.06-6.87c-1.67-.23-3.17-.81-4.51-1.74-1.65-1.15-2.27-2.44-1.87-3.87-.02.06.18-.47.59-1.6.41-1.12.76-2.2,1.05-3.23.41-1.43.69-2.74.84-3.94l27.72,9.72,24.71,5.99c1.49.42,2.41.75,2.78.97.93.64,1.2,1.64.81,3.01-.81,2.86-3.15,5.86-7.01,9.01-3.86,3.14-6.04,5.6-6.55,7.38-.31,1.09.33,4.05,1.93,8.9,1.59,4.84,2.07,8.41,1.42,10.7-.31,1.09-.53,1.74-.65,1.95-.83,1.19-2.65,1.38-5.45.59l-18.85-6.37-13.98-3.96-18.91-3.88Z"/>
    <path class="cls-8" d="m553,449.04c.21.11-2.57-1.19-8.35-3.92l-17.29-8.26c.14-.26.39-.6.75-1.01s.61-.75.75-1.01c.31-.58.72-1.45,1.23-2.63.51-1.18.9-2.04,1.18-2.56,1.5-2.77,3.39-3.44,5.66-2.01,10.95,7.16,19.32,12.31,25.13,15.46,3.87,2.1,6.88,3.6,9.04,4.5l12.52,5.37c.87.4,1.22.93,1.06,1.6-1.43,1.88-2.1,2.75-2.01,2.59-.26.47-.51,1.24-.74,2.31-.24,1.06-.47,1.81-.7,2.23-1.23,2.27-3.15,2.69-5.77,1.27s-6.36-3.74-11.23-6.95c-4.87-3.22-8.61-5.53-11.23-6.95Z"/>
    <path class="cls-8" d="m504.55,470.49l-.99-1.48c.75-.08,1.41-.47,1.97-1.17.34-.42.79-1.2,1.37-2.34.57-1.14,1.09-1.99,1.53-2.55,1.83-2.27,3.72-2.62,5.66-1.06,1.71,1.38,4.07,3.7,7.07,6.95s5.37,5.59,7.14,7.01c1.81,1.46,3.42,1.96,4.85,1.51,1.1-.33,2.31-1.3,3.6-2.91,2.12-2.63,3.37-4.43,3.77-5.4.94-2.21.46-4.08-1.44-5.61-1.67-1.34-4.29-3.17-7.86-5.47-3.57-2.3-6.17-4.11-7.79-5.41-2.69-2.16-3.04-4.48-1.07-6.93.34-.42.97-.94,1.89-1.57.93-.63,1.58-1.18,1.95-1.64.63-.79,1.01-1.78,1.14-2.98l1.42.8c1.62,1.31,3.86,3.71,6.69,7.22,2.69,3.31,4.94,5.65,6.74,7.03,6.25,4.5,10.33,7.51,12.23,9.04,1.67,1.34,3.57,3.5,5.69,6.47s3.81,4.96,5.07,5.97c.79.64,1.83.98,3.13,1.03,1.3.05,2.04.15,2.22.3.74.6.62,1.65-.36,3.16.25-.41-.57.57-2.48,2.94-.93,1.16-2.4,2.76-4.38,4.8-1.99,2.04-3.43,3.62-4.33,4.73-.86,1.07-2.02,2.74-3.47,5.02-1.45,2.28-2.59,3.93-3.41,4.95-1.61,2-3.25,2.33-4.92.98-5.42-4.37-8.9-7.36-10.43-8.97-4.13-4.55-9.29-8.82-15.48-12.8-7.74-5.01-13.32-8.89-16.75-11.65Zm37.03,16.06c4.77,3.84,8.99,3.49,12.65-1.05,3.66-4.54,3.1-8.74-1.68-12.58-1.21-.97-2.16-1.47-2.86-1.5-.7-.03-1.52.53-2.45,1.69-.34.42-.76,1.07-1.28,1.95-.52.88-.95,1.53-1.28,1.95-.45.56-1.18,1.34-2.19,2.36-1.01,1.02-1.76,1.83-2.25,2.43-1.19,1.48-.75,3.07,1.34,4.74Z"/>
  </g>
  <path class="cls-4" d="m531.62,366.78c0,35.79-15.91,68.68-42.52,94.61-10.42,10.17-22.49,19.26-35.88,27.04-21.43,12.46-46.27,21.55-73.22,26.29-2.95.52-5.92.99-8.91,1.4-11.08,1.52-22.48,2.32-34.12,2.32-2,0-3.99-.02-5.97-.07-104.74-2.46-188.67-69.39-188.67-151.59s83.93-149.13,188.67-151.59c1.98-.05,3.97-.07,5.97-.07,11.64,0,23.04.8,34.12,2.32,3,.42,5.98.88,8.94,1.4,28.87,5.08,55.3,15.16,77.73,29.01,13.31,8.21,25.21,17.76,35.37,28.38,24.18,25.27,38.49,56.61,38.49,90.55Z"/>
  <path class="cls-1" d="m380.03,514.74s-.02-.01-.03-.02"/>
  <path class="cls-6" d="m298.55,131.81c-2.61,1.54-5.65,2.45-8.91,2.45-1.84,0-3.62-.29-5.29-.81l-4.02,22.27,16.74,15.2,10.74-22.51-9.26-16.59Z"/>
  <path class="cls-6" d="m434.11,155.17c-15.63,16.99-25.63,53.65-25.63,53.65-22.5-6.57-46.53-10-71.24-10s-48.73,3.43-71.23,10c0,0-10-36.66-25.63-53.65.4.03.81.07,1.23.07,6.54,0,12.25-3.6,15.26-8.91l43.17,39.17,26.32-55.15c3.25,1.7,6.95,2.66,10.88,2.66s7.63-.96,10.88-2.66l26.33,55.15,43.16-39.17c3.01,5.31,8.73,8.91,15.26,8.91.43,0,.84-.04,1.24-.07Z"/>
  <circle class="cls-5" cx="240.71" cy="137.26" r="9.09"/>
  <path class="cls-2" d="m179.92,456.39s22.17,130.14,157.06,129.8"/>
  <path class="cls-2" d="m296.93,582.02s-6.86,22.21,40.03,22.21"/>
  <path class="cls-2" d="m325.48,603.71v20.35s-1.36,3.49,11.48,3.49"/>
  <path class="cls-2" d="m325.48,622.53s-28.9-1.19-28.9,11.7,40.38,13.23,40.38,13.23"/>
  <path class="cls-2" d="m296.63,634.98s.35,26.91,40.34,26.91"/>
  <path class="cls-2" d="m336.97,711.44c-40.77-.59-73.37-13.9-73.37-30.23,0-12.08,17.84-22.51,43.64-27.36"/>
  <path class="cls-2" d="m323.94,660.76s5.98,9.78-1.1,17.25c2.55,1.4,5.67,3.45,14.13,3.45"/>
  <path class="cls-2" d="m222.74,489.59s9.91,55.57,49.09,84.51"/>
  <path class="cls-2" d="m493.88,456.39s-22.17,130.14-157.06,129.8v-67.74"/>
  <path class="cls-2" d="m376.86,582.02s6.86,22.21-40.03,22.21"/>
  <path class="cls-2" d="m348.31,603.71c0,11.63,0,16.67,0,18.81v1.53s1.36,3.49-11.48,3.49"/>
  <path class="cls-2" d="m348.31,622.53s28.9-1.19,28.9,11.7c0,12.89-40.38,13.23-40.38,13.23"/>
  <path class="cls-2" d="m377.16,634.98s-.35,26.91-40.34,26.91"/>
  <path class="cls-2" d="m336.82,711.44c40.77-.59,73.37-13.9,73.37-30.23,0-12.08-17.84-22.51-43.64-27.36"/>
  <path class="cls-2" d="m349.86,660.76s-5.98,9.78,1.1,17.25c-2.55,1.4-5.67,3.45-14.13,3.45"/>
  <path class="cls-2" d="m451.06,489.59s-9.91,55.57-49.09,84.51"/>
  <polygon class="cls-8" points="456.49 505.9 465.18 496.46 467.96 486.61 469.18 494.21 474.58 490.75 468.96 499.23 464.88 508.85 465.24 501.4 456.49 505.9"/>
  <path class="cls-8" d="m379.84,695.06s15.51-9.45,4.15-10.4c8.17-2.01,16.46-6.22,4.91-7.72,7.66-4.72,14.26-.55,13.94,2.51-.79,3.29-2.44,5.5-8.21,9.76s-14.8,5.85-14.8,5.85Z"/>
  <circle class="cls-2" cx="289.43" cy="113.77" r="9.09"/>
  <path class="cls-6" d="m375.64,131.81c2.61,1.54,5.65,2.45,8.91,2.45,1.84,0,3.62-.29,5.29-.81l4.02,22.27-16.74,15.2-10.74-22.51,9.26-16.59Z"/>
  <circle class="cls-2" cx="384.77" cy="113.77" r="9.09"/>
  <circle class="cls-5" cx="433.23" cy="137.26" r="9.09"/>
  <circle class="cls-4" cx="337.16" cy="107.3" r="12.86"/>
  <path class="cls-7" d="m188.54,349.67h118.15s16.83-.83,24.31-6.7v51.7c-7.48-5.87-24.31-6.7-24.31-6.7h-117.45c9.92,52.68,56.18,92.53,111.75,92.53,10.39,0,20.45-1.39,30.01-4.01v41.88c-104.74-2.46-188.67-69.39-188.67-151.59s83.93-149.13,188.67-151.59v41.88c-9.56-2.62-19.62-4.01-30.01-4.01-56.99,0-104.2,41.92-112.45,96.61Z"/>
  <path class="cls-7" d="m410.87,328.42c-5.84,12.13-9.11,25.72-9.11,40.06s2.96,26.59,8.27,38.26c14.25,31.29,45.42,53.31,81.75,54.31-10.42,10.17-22.49,19.26-35.88,27.04-26.73-8.59-49.55-25.89-65.12-48.56-7.46-10.84-13.25-22.9-17.01-35.83v78.94s1.27,26.31,8.91,31.74c-2.95.52-5.92.99-8.91,1.4-11.08,1.52-22.48,2.32-34.12,2.32V214.78c11.64,0,23.04.8,34.12,2.32,3,.42,5.98.88,8.94,1.4-7.67,5.38-8.94,31.77-8.94,31.77v82.99c4.02-13.81,10.35-26.63,18.55-38.03,16.42-22.84,40.33-39.94,68.12-47.72,13.31,8.21,25.21,17.76,35.37,28.38-.48-.02-.96-.02-1.44-.02-36.73,0-68.53,21.49-83.5,52.55Z"/>
  <path class="cls-1" d="m380.03,514.74s-.02-.01-.03-.02"/>
  <rect class="cls-3" width="673.82" height="805.88"/>
</svg>